<svg width="81.696" xmlns="http://www.w3.org/2000/svg" height="81.696" viewBox="-513.034 1982.402 81.696 81.696" fill="none"><path d="M-463.656,1998.479C-463.522,1999.240,-463.861,2000.007,-464.514,2000.420C-467.067,2002.036,-469.273,2004.144,-471.004,2006.620C-478.257,2016.963,-475.752,2031.229,-465.409,2038.482C-462.937,2040.220,-460.146,2041.450,-457.195,2042.100C-456.441,2042.266,-455.862,2042.871,-455.728,2043.631C-455.594,2044.391,-455.932,2045.157,-456.584,2045.571C-465.688,2051.331,-477.363,2051.054,-486.184,2044.868C-498.252,2036.405,-501.174,2019.762,-492.712,2007.695C-486.337,1998.605,-475.324,1994.706,-465.122,1996.949C-464.369,1997.115,-463.790,1997.719,-463.656,1998.479ZZ" clip-rule="evenodd" fill-rule="evenodd" style="fill: rgb(181, 179, 178);" class="fills"/><g clip-rule="evenodd" fill-rule="evenodd" class="strokes"><path d="M-463.656,1998.479C-463.522,1999.240,-463.861,2000.007,-464.514,2000.420C-467.067,2002.036,-469.273,2004.144,-471.004,2006.620C-478.257,2016.963,-475.752,2031.229,-465.409,2038.482C-462.937,2040.220,-460.146,2041.450,-457.195,2042.100C-456.441,2042.266,-455.862,2042.871,-455.728,2043.631C-455.594,2044.391,-455.932,2045.157,-456.584,2045.571C-465.688,2051.331,-477.363,2051.054,-486.184,2044.868C-498.252,2036.405,-501.174,2019.762,-492.712,2007.695C-486.337,1998.605,-475.324,1994.706,-465.122,1996.949C-464.369,1997.115,-463.790,1997.719,-463.656,1998.479ZZ" style="fill: none; stroke-width: 4; stroke: rgb(99, 63, 125); stroke-opacity: 1;" class="stroke-shape"/></g></svg>