<svg width="81.696" xmlns="http://www.w3.org/2000/svg" height="81.696" viewBox="-509.695 1072.402 81.696 81.696" fill="none"><path d="M-477.377,1088.479C-477.511,1089.240,-477.172,1090.007,-476.519,1090.420C-473.966,1092.036,-471.760,1094.144,-470.029,1096.620C-462.776,1106.963,-465.281,1121.229,-475.625,1128.482C-478.096,1130.220,-480.888,1131.450,-483.838,1132.100C-484.592,1132.266,-485.171,1132.871,-485.305,1133.631C-485.439,1134.391,-485.101,1135.157,-484.449,1135.571C-475.345,1141.331,-463.670,1141.054,-454.849,1134.868C-442.781,1126.405,-439.859,1109.762,-448.321,1097.695C-454.696,1088.605,-465.709,1084.706,-475.911,1086.949C-476.664,1087.115,-477.243,1087.719,-477.377,1088.479ZZ" clip-rule="evenodd" fill-rule="evenodd" style="fill: rgb(181, 179, 178);" class="fills"/><g clip-rule="evenodd" fill-rule="evenodd" class="strokes"><path d="M-477.377,1088.479C-477.511,1089.240,-477.172,1090.007,-476.519,1090.420C-473.966,1092.036,-471.760,1094.144,-470.029,1096.620C-462.776,1106.963,-465.281,1121.229,-475.625,1128.482C-478.096,1130.220,-480.888,1131.450,-483.838,1132.100C-484.592,1132.266,-485.171,1132.871,-485.305,1133.631C-485.439,1134.391,-485.101,1135.157,-484.449,1135.571C-475.345,1141.331,-463.670,1141.054,-454.849,1134.868C-442.781,1126.405,-439.859,1109.762,-448.321,1097.695C-454.696,1088.605,-465.709,1084.706,-475.911,1086.949C-476.664,1087.115,-477.243,1087.719,-477.377,1088.479ZZ" style="fill: none; stroke-width: 4; stroke: rgb(99, 63, 125); stroke-opacity: 1;" class="stroke-shape"/></g></svg>