<svg width="98.906" xmlns="http://www.w3.org/2000/svg" height="98.692" viewBox="-13.953 -13.846 98.906 98.692" fill="none"><g class="icon" style="fill: rgb(0, 0, 0);"><path d="M19.197,60.169L35.136,52.257L50.712,60.884C51.138,61.120,51.630,61.210,52.112,61.138C53.322,60.959,54.159,59.832,53.985,58.620L51.355,41.042L64.375,28.928C64.735,28.595,64.969,28.155,65.051,27.677C65.253,26.468,64.436,25.324,63.225,25.121L45.663,22.167L38.134,6.054C37.778,5.289,37.016,4.792,36.171,4.773C35.326,4.754,34.544,5.216,34.155,5.965L25.927,21.720L8.252,23.876C7.768,23.933,7.314,24.154,6.968,24.495C6.094,25.352,6.080,26.753,6.939,27.625L19.419,40.315L16.027,57.758C15.936,58.234,16.001,58.728,16.221,59.166C16.759,60.269,18.096,60.711,19.197,60.169ZZM24.824,38.701L14.446,28.150L29.143,26.349L35.987,13.245L42.248,26.644L56.856,29.103L46.026,39.180L48.210,53.796L35.259,46.625L22.000,53.206L24.824,38.701ZZ" style="fill: rgb(181, 179, 178); fill-opacity: 1;" class="fills"/><g class="strokes"><g class="outer-stroke-shape"><defs><mask id="d" x="-12.75" y="-11.647" width="99.61" height="98.769" maskUnits="userSpaceOnUse"><use href="#c" style="fill: none; stroke: white; stroke-width: 8;"/><use href="#c" style="fill: black; stroke: none;"/></mask><path d="M19.197,60.169L35.136,52.257L50.712,60.884C51.138,61.120,51.630,61.210,52.112,61.138C53.322,60.959,54.159,59.832,53.985,58.620L51.355,41.042L64.375,28.928C64.735,28.595,64.969,28.155,65.051,27.677C65.253,26.468,64.436,25.324,63.225,25.121L45.663,22.167L38.134,6.054C37.778,5.289,37.016,4.792,36.171,4.773C35.326,4.754,34.544,5.216,34.155,5.965L25.927,21.720L8.252,23.876C7.768,23.933,7.314,24.154,6.968,24.495C6.094,25.352,6.080,26.753,6.939,27.625L19.419,40.315L16.027,57.758C15.936,58.234,16.001,58.728,16.221,59.166C16.759,60.269,18.096,60.711,19.197,60.169ZZM24.824,38.701L14.446,28.150L29.143,26.349L35.987,13.245L42.248,26.644L56.856,29.103L46.026,39.180L48.210,53.796L35.259,46.625L22.000,53.206L24.824,38.701ZZ" id="c"/></defs><use href="#c" mask="url(#d)" style="fill: none; stroke-width: 8; stroke: rgb(99, 63, 125); stroke-opacity: 1;"/><use href="#c" style="fill: none; stroke-width: 4; stroke: none; stroke-opacity: 1;"/></g></g></g></svg>