<svg width="77.144" xmlns="http://www.w3.org/2000/svg" height="76.977" viewBox="-3.072 -2.988 77.144 76.977" fill="none"><g class="icon" style="fill: rgb(0, 0, 0);"><path d="M9.140,48.897L26.907,49.891L36.189,65.085C36.442,65.501,36.826,65.822,37.281,65.997C38.421,66.439,39.706,65.873,40.153,64.733L46.549,48.150L63.853,44.048C64.330,43.936,64.752,43.669,65.059,43.294C65.831,42.343,65.685,40.944,64.733,40.169L50.923,28.927L52.334,11.198C52.403,10.356,51.986,9.548,51.261,9.114C50.535,8.680,49.627,8.696,48.918,9.155L33.982,18.789L17.549,11.935C17.100,11.745,16.596,11.713,16.127,11.838C14.944,12.152,14.239,13.363,14.556,14.546L19.139,31.743L7.575,45.235C7.260,45.604,7.072,46.066,7.047,46.555C6.971,47.780,7.915,48.824,9.140,48.897ZZM24.636,33.010L20.824,18.710L34.492,24.403L46.916,16.390L45.742,31.133L57.229,40.486L42.835,43.899L37.515,57.686L29.795,45.055L15.016,44.227L24.636,33.010ZZ" style="fill: rgb(181, 179, 178); fill-opacity: 1;" class="fills"/><g class="strokes"><g class="outer-stroke-shape"><defs><mask id="d" x="-5.694" y="-1.959" width="82.881" height="80.347" maskUnits="userSpaceOnUse"><use href="#c" style="fill: none; stroke: white; stroke-width: 8;"/><use href="#c" style="fill: black; stroke: none;"/></mask><path d="M9.140,48.897L26.907,49.891L36.189,65.085C36.442,65.501,36.826,65.822,37.281,65.997C38.421,66.439,39.706,65.873,40.153,64.733L46.549,48.150L63.853,44.048C64.330,43.936,64.752,43.669,65.059,43.294C65.831,42.343,65.685,40.944,64.733,40.169L50.923,28.927L52.334,11.198C52.403,10.356,51.986,9.548,51.261,9.114C50.535,8.680,49.627,8.696,48.918,9.155L33.982,18.789L17.549,11.935C17.100,11.745,16.596,11.713,16.127,11.838C14.944,12.152,14.239,13.363,14.556,14.546L19.139,31.743L7.575,45.235C7.260,45.604,7.072,46.066,7.047,46.555C6.971,47.780,7.915,48.824,9.140,48.897ZZM24.636,33.010L20.824,18.710L34.492,24.403L46.916,16.390L45.742,31.133L57.229,40.486L42.835,43.899L37.515,57.686L29.795,45.055L15.016,44.227L24.636,33.010ZZ" id="c"/></defs><use href="#c" mask="url(#d)" style="fill: none; stroke-width: 8; stroke: rgb(99, 63, 125); stroke-opacity: 1;"/><use href="#c" style="fill: none; stroke-width: 4; stroke: none; stroke-opacity: 1;"/></g></g></g></svg>