<svg width="178.677" xmlns="http://www.w3.org/2000/svg" height="179.136" viewBox="-1877.65 1211.5 178.677 179.136" fill="none"><path d="M-1837.339,1273.736L-1816.969,1301.998L-1828.659,1334.837C-1828.980,1335.735,-1828.995,1336.715,-1828.702,1337.623C-1827.970,1339.902,-1825.525,1341.161,-1823.242,1340.437L-1790.128,1329.745L-1762.572,1351.026C-1761.814,1351.614,-1760.889,1351.926,-1759.940,1351.931C-1757.541,1351.935,-1755.593,1349.991,-1755.586,1347.588L-1755.487,1312.724L-1726.769,1293.036C-1725.405,1292.104,-1724.688,1290.475,-1724.921,1288.836C-1725.154,1287.198,-1726.297,1285.835,-1727.867,1285.322L-1760.925,1274.459L-1770.734,1241.009C-1770.998,1240.092,-1771.570,1239.285,-1772.339,1238.725C-1774.273,1237.312,-1776.983,1237.731,-1778.394,1239.669L-1798.920,1267.826L-1833.694,1266.845C-1834.643,1266.820,-1835.578,1267.104,-1836.354,1267.668C-1838.312,1269.060,-1838.738,1271.783,-1837.339,1273.736ZZM-1794.078,1277.751L-1777.011,1254.336L-1768.840,1282.150L-1741.344,1291.186L-1765.226,1307.557L-1765.311,1336.558L-1788.233,1318.857L-1815.767,1327.742L-1806.052,1300.437L-1822.996,1276.928L-1794.078,1277.751ZZ" style="fill: rgb(181, 179, 178); fill-opacity: 1;" class="fills"/><g class="strokes"><g class="outer-stroke-shape"><defs><mask id="b" x="-1877.307" y="1211.843" width="177.991" height="178.45" maskUnits="userSpaceOnUse"><use href="#a" style="fill: none; stroke: white; stroke-width: 8;"/><use href="#a" style="fill: black; stroke: none;"/></mask><path d="M-1837.339,1273.736L-1816.969,1301.998L-1828.659,1334.837C-1828.980,1335.735,-1828.995,1336.715,-1828.702,1337.623C-1827.970,1339.902,-1825.525,1341.161,-1823.242,1340.437L-1790.128,1329.745L-1762.572,1351.026C-1761.814,1351.614,-1760.889,1351.926,-1759.940,1351.931C-1757.541,1351.935,-1755.593,1349.991,-1755.586,1347.588L-1755.487,1312.724L-1726.769,1293.036C-1725.405,1292.104,-1724.688,1290.475,-1724.921,1288.836C-1725.154,1287.198,-1726.297,1285.835,-1727.867,1285.322L-1760.925,1274.459L-1770.734,1241.009C-1770.998,1240.092,-1771.570,1239.285,-1772.339,1238.725C-1774.273,1237.312,-1776.983,1237.731,-1778.394,1239.669L-1798.920,1267.826L-1833.694,1266.845C-1834.643,1266.820,-1835.578,1267.104,-1836.354,1267.668C-1838.312,1269.060,-1838.738,1271.783,-1837.339,1273.736ZZM-1794.078,1277.751L-1777.011,1254.336L-1768.840,1282.150L-1741.344,1291.186L-1765.226,1307.557L-1765.311,1336.558L-1788.233,1318.857L-1815.767,1327.742L-1806.052,1300.437L-1822.996,1276.928L-1794.078,1277.751ZZ" id="a"/></defs><use href="#a" mask="url(#b)" style="fill: none; stroke-width: 8; stroke: rgb(99, 63, 125); stroke-opacity: 1;"/><use href="#a" style="fill: none; stroke-width: 4; stroke: none; stroke-opacity: 1;"/></g></g></svg>